<svg id="SvgjsSvg2438" width="647.75" height="1057.5" xmlns="http://www.w3.org/2000/svg" version="1.1" xmlns:xlink="http://www.w3.org/1999/xlink" xmlns:svgjs="http://svgjs.com/svgjs"><defs id="SvgjsDefs2439"><marker id="SvgjsMarker2489" markerWidth="16" markerHeight="12" refX="16" refY="6" viewBox="0 0 16 12" orient="auto" markerUnits="userSpaceOnUse" stroke-dasharray="0,0"><path id="SvgjsPath2490" d="M0,2 L14,6 L0,11 L0,2" fill="#323232" stroke="#323232" stroke-width="2"></path></marker><marker id="SvgjsMarker2537" markerWidth="16" markerHeight="12" refX="16" refY="6" viewBox="0 0 16 12" orient="auto" markerUnits="userSpaceOnUse" stroke-dasharray="0,0"><path id="SvgjsPath2538" d="M0,2 L14,6 L0,11 L0,2" fill="#323232" stroke="#323232" stroke-width="2"></path></marker><marker id="SvgjsMarker2541" markerWidth="16" markerHeight="12" refX="16" refY="6" viewBox="0 0 16 12" orient="auto" markerUnits="userSpaceOnUse" stroke-dasharray="0,0"><path id="SvgjsPath2542" d="M0,2 L14,6 L0,11 L0,2" fill="#323232" stroke="#323232" stroke-width="2"></path></marker><marker id="SvgjsMarker2551" markerWidth="16" markerHeight="12" refX="16" refY="6" viewBox="0 0 16 12" orient="auto" markerUnits="userSpaceOnUse" stroke-dasharray="0,0"><path id="SvgjsPath2552" d="M0,2 L14,6 L0,11 L0,2" fill="#323232" stroke="#323232" stroke-width="2"></path></marker><marker id="SvgjsMarker2573" markerWidth="16" markerHeight="12" refX="16" refY="6" viewBox="0 0 16 12" orient="auto" markerUnits="userSpaceOnUse" stroke-dasharray="0,0"><path id="SvgjsPath2574" d="M0,2 L14,6 L0,11 L0,2" fill="#323232" stroke="#323232" stroke-width="2"></path></marker><marker id="SvgjsMarker2577" markerWidth="16" markerHeight="12" refX="16" refY="6" viewBox="0 0 16 12" orient="auto" markerUnits="userSpaceOnUse" stroke-dasharray="0,0"><path id="SvgjsPath2578" d="M0,2 L14,6 L0,11 L0,2" fill="#323232" stroke="#323232" stroke-width="2"></path></marker><marker id="SvgjsMarker2581" markerWidth="16" markerHeight="12" refX="16" refY="6" viewBox="0 0 16 12" orient="auto" markerUnits="userSpaceOnUse" stroke-dasharray="0,0"><path id="SvgjsPath2582" d="M0,2 L14,6 L0,11 L0,2" fill="#323232" stroke="#323232" stroke-width="2"></path></marker><marker id="SvgjsMarker2585" markerWidth="16" markerHeight="12" refX="16" refY="6" viewBox="0 0 16 12" orient="auto" markerUnits="userSpaceOnUse" stroke-dasharray="0,0"><path id="SvgjsPath2586" d="M0,2 L14,6 L0,11 L0,2" fill="#323232" stroke="#323232" stroke-width="2"></path></marker><marker id="SvgjsMarker2589" markerWidth="16" markerHeight="12" refX="16" refY="6" viewBox="0 0 16 12" orient="auto" markerUnits="userSpaceOnUse" stroke-dasharray="0,0"><path id="SvgjsPath2590" d="M0,2 L14,6 L0,11 L0,2" fill="#323232" stroke="#323232" stroke-width="2"></path></marker><marker id="SvgjsMarker2593" markerWidth="16" markerHeight="12" refX="16" refY="6" viewBox="0 0 16 12" orient="auto" markerUnits="userSpaceOnUse" stroke-dasharray="0,0"><path id="SvgjsPath2594" d="M0,2 L14,6 L0,11 L0,2" fill="#323232" stroke="#323232" stroke-width="2"></path></marker><marker id="SvgjsMarker2603" markerWidth="16" markerHeight="12" refX="16" refY="6" viewBox="0 0 16 12" orient="auto" markerUnits="userSpaceOnUse" stroke-dasharray="0,0"><path id="SvgjsPath2604" d="M0,2 L14,6 L0,11 L0,2" fill="#323232" stroke="#323232" stroke-width="2"></path></marker><marker id="SvgjsMarker2607" markerWidth="16" markerHeight="12" refX="16" refY="6" viewBox="0 0 16 12" orient="auto" markerUnits="userSpaceOnUse" stroke-dasharray="0,0"><path id="SvgjsPath2608" d="M0,2 L14,6 L0,11 L0,2" fill="#323232" stroke="#323232" stroke-width="2"></path></marker><marker id="SvgjsMarker2617" markerWidth="16" markerHeight="12" refX="16" refY="6" viewBox="0 0 16 12" orient="auto" markerUnits="userSpaceOnUse" stroke-dasharray="0,0"><path id="SvgjsPath2618" d="M0,2 L14,6 L0,11 L0,2" fill="#323232" stroke="#323232" stroke-width="2"></path></marker><marker id="SvgjsMarker2621" markerWidth="16" markerHeight="12" refX="16" refY="6" viewBox="0 0 16 12" orient="auto" markerUnits="userSpaceOnUse" stroke-dasharray="0,0"><path id="SvgjsPath2622" d="M0,2 L14,6 L0,11 L0,2" fill="#323232" stroke="#323232" stroke-width="2"></path></marker><marker id="SvgjsMarker2625" markerWidth="16" markerHeight="12" refX="16" refY="6" viewBox="0 0 16 12" orient="auto" markerUnits="userSpaceOnUse" stroke-dasharray="0,0"><path id="SvgjsPath2626" d="M0,2 L14,6 L0,11 L0,2" fill="#323232" stroke="#323232" stroke-width="2"></path></marker><marker id="SvgjsMarker2629" markerWidth="16" markerHeight="12" refX="16" refY="6" viewBox="0 0 16 12" orient="auto" markerUnits="userSpaceOnUse" stroke-dasharray="0,0"><path id="SvgjsPath2630" d="M0,2 L14,6 L0,11 L0,2" fill="#323232" stroke="#323232" stroke-width="2"></path></marker><marker id="SvgjsMarker2633" markerWidth="16" markerHeight="12" refX="16" refY="6" viewBox="0 0 16 12" orient="auto" markerUnits="userSpaceOnUse" stroke-dasharray="0,0"><path id="SvgjsPath2634" d="M0,2 L14,6 L0,11 L0,2" fill="#323232" stroke="#323232" stroke-width="2"></path></marker><marker id="SvgjsMarker2649" markerWidth="16" markerHeight="12" refX="16" refY="6" viewBox="0 0 16 12" orient="auto" markerUnits="userSpaceOnUse" stroke-dasharray="0,0"><path id="SvgjsPath2650" d="M0,2 L14,6 L0,11 L0,2" fill="#323232" stroke="#323232" stroke-width="2"></path></marker><marker id="SvgjsMarker2653" markerWidth="16" markerHeight="12" refX="16" refY="6" viewBox="0 0 16 12" orient="auto" markerUnits="userSpaceOnUse" stroke-dasharray="0,0"><path id="SvgjsPath2654" d="M0,2 L14,6 L0,11 L0,2" fill="#323232" stroke="#323232" stroke-width="2"></path></marker><marker id="SvgjsMarker2657" markerWidth="16" markerHeight="12" refX="16" refY="6" viewBox="0 0 16 12" orient="auto" markerUnits="userSpaceOnUse" stroke-dasharray="0,0"><path id="SvgjsPath2658" d="M0,2 L14,6 L0,11 L0,2" fill="#323232" stroke="#323232" stroke-width="2"></path></marker><marker id="SvgjsMarker2661" markerWidth="16" markerHeight="12" refX="16" refY="6" viewBox="0 0 16 12" orient="auto" markerUnits="userSpaceOnUse" stroke-dasharray="0,0"><path id="SvgjsPath2662" d="M0,2 L14,6 L0,11 L0,2" fill="#323232" stroke="#323232" stroke-width="2"></path></marker><marker id="SvgjsMarker2665" markerWidth="16" markerHeight="12" refX="16" refY="6" viewBox="0 0 16 12" orient="auto" markerUnits="userSpaceOnUse" stroke-dasharray="0,0"><path id="SvgjsPath2666" d="M0,2 L14,6 L0,11 L0,2" fill="#323232" stroke="#323232" stroke-width="2"></path></marker><marker id="SvgjsMarker2669" markerWidth="16" markerHeight="12" refX="16" refY="6" viewBox="0 0 16 12" orient="auto" markerUnits="userSpaceOnUse" stroke-dasharray="0,0"><path id="SvgjsPath2670" d="M0,2 L14,6 L0,11 L0,2" fill="#323232" stroke="#323232" stroke-width="2"></path></marker></defs><g id="SvgjsG2440" transform="translate(323.25,25)"><path id="SvgjsPath2441" d="M 0 4Q 0 0 4 0L 127 0Q 131 0 131 4L 131 84Q 131 88 127 88L 4 88Q 0 88 0 84Z" stroke="rgba(50,50,50,1)" stroke-width="2" fill-opacity="1" fill="#ba68c8"></path><g id="SvgjsG2442"><text id="SvgjsText2443" font-family="微软雅黑" text-anchor="middle" font-size="13px" width="111px" fill="#323232" font-weight="400" align="middle" lineHeight="125%" anchor="middle" family="微软雅黑" size="13px" weight="400" font-style="" opacity="1" y="2.375" transform="rotate(0)"><tspan id="SvgjsTspan2444" dy="16" x="65.5"><tspan id="SvgjsTspan2445" style="text-decoration:;">New connection</tspan></tspan><tspan id="SvgjsTspan2446" dy="16" x="65.5"><tspan id="SvgjsTspan2447" style="text-decoration:;">&amp;</tspan></tspan><tspan id="SvgjsTspan2448" dy="16" x="65.5"><tspan id="SvgjsTspan2449" style="text-decoration:;">create context</tspan></tspan><tspan id="SvgjsTspan2450" dy="16" x="65.5"><tspan id="SvgjsTspan2451" style="text-decoration:;">&amp;</tspan></tspan><tspan id="SvgjsTspan2452" dy="16" x="65.5"><tspan id="SvgjsTspan2453" style="text-decoration:;">set timer</tspan></tspan></text></g></g><g id="SvgjsG2454" transform="translate(323.25,232)"><path id="SvgjsPath2455" d="M 0 4Q 0 0 4 0L 127 0Q 131 0 131 4L 131 35Q 131 39 127 39L 4 39Q 0 39 0 35Z" stroke="rgba(33,33,33,1)" stroke-width="2" fill-opacity="1" fill="#81c784"></path><g id="SvgjsG2456"><text id="SvgjsText2457" font-family="微软雅黑" text-anchor="middle" font-size="13px" width="111px" fill="#323232" font-weight="400" align="middle" lineHeight="125%" anchor="middle" family="微软雅黑" size="13px" weight="400" font-style="" opacity="1" y="9.875" transform="rotate(0)"><tspan id="SvgjsTspan2458" dy="16" x="65.5"><tspan id="SvgjsTspan2459" style="text-decoration:;">Parse request</tspan></tspan></text></g></g><g id="SvgjsG2460" transform="translate(55,188)"><path id="SvgjsPath2461" d="M 0 4Q 0 0 4 0L 127 0Q 131 0 131 4L 131 35Q 131 39 127 39L 4 39Q 0 39 0 35Z" stroke-dasharray="10,6" stroke="rgba(50,50,50,1)" stroke-width="2" fill-opacity="1" fill="#64b5f6"></path><g id="SvgjsG2462"><text id="SvgjsText2463" font-family="微软雅黑" text-anchor="middle" font-size="13px" width="111px" fill="#323232" font-weight="400" align="middle" lineHeight="125%" anchor="middle" family="微软雅黑" size="13px" weight="400" font-style="" opacity="1" y="9.875" transform="rotate(0)"><tspan id="SvgjsTspan2464" dy="16" x="65.5"><tspan id="SvgjsTspan2465" style="text-decoration:;">before_parse()</tspan></tspan></text></g></g><g id="SvgjsG2466" transform="translate(323.25,311)"><path id="SvgjsPath2467" d="M 0 4Q 0 0 4 0L 127 0Q 131 0 131 4L 131 35Q 131 39 127 39L 4 39Q 0 39 0 35Z" stroke="rgba(50,50,50,1)" stroke-width="2" fill-opacity="1" fill="#81c784"></path><g id="SvgjsG2468"><text id="SvgjsText2469" font-family="微软雅黑" text-anchor="middle" font-size="13px" width="111px" fill="#323232" font-weight="400" align="middle" lineHeight="125%" anchor="middle" family="微软雅黑" size="13px" weight="400" font-style="" opacity="1" y="1.875" transform="rotate(0)"><tspan id="SvgjsTspan2470" dy="16" x="65.5"><tspan id="SvgjsTspan2471" style="text-decoration:;">Dispatch request </tspan></tspan><tspan id="SvgjsTspan2472" dy="16" x="65.5"><tspan id="SvgjsTspan2473" style="text-decoration:;">based on URL</tspan></tspan></text></g></g><g id="SvgjsG2474" transform="translate(55,267)"><path id="SvgjsPath2475" d="M 0 4Q 0 0 4 0L 127 0Q 131 0 131 4L 131 35Q 131 39 127 39L 4 39Q 0 39 0 35Z" stroke-dasharray="10,6" stroke="rgba(50,50,50,1)" stroke-width="2" fill-opacity="1" fill="#64b5f6"></path><g id="SvgjsG2476"><text id="SvgjsText2477" font-family="微软雅黑" text-anchor="middle" font-size="13px" width="111px" fill="#323232" font-weight="400" align="middle" lineHeight="125%" anchor="middle" family="微软雅黑" size="13px" weight="400" font-style="" opacity="1" y="9.875" transform="rotate(0)"><tspan id="SvgjsTspan2478" dy="16" x="65.5"><tspan id="SvgjsTspan2479" style="text-decoration:;">before_dispatch</tspan><tspan id="SvgjsTspan2480" style="text-decoration:;font-size: inherit;">()</tspan></tspan></text></g></g><g id="SvgjsG2481" transform="translate(344.5,390)"><path id="SvgjsPath2482" d="M 0 44.25C 0 -14.75 88.5 -14.75 88.5 44.25C 88.5 103.25 0 103.25 0 44.25Z" stroke="rgba(50,50,50,1)" stroke-width="2" fill-opacity="1" fill="#64b5f6"></path><g id="SvgjsG2483"><text id="SvgjsText2484" font-family="微软雅黑" text-anchor="middle" font-size="13px" width="69px" fill="#323232" font-weight="400" align="middle" lineHeight="125%" anchor="middle" family="微软雅黑" size="13px" weight="400" font-style="" opacity="1" y="34.625" transform="rotate(0)"><tspan id="SvgjsTspan2485" dy="16" x="44.5"><tspan id="SvgjsTspan2486" style="text-decoration:;">handler()</tspan></tspan></text></g></g><g id="SvgjsG2487"><path id="SvgjsPath2488" d="M388.75 350L388.75 370L388.75 370L388.75 390" stroke="#323232" stroke-width="2" fill="none" marker-end="url(#SvgjsMarker2489)"></path></g><g id="SvgjsG2491" transform="translate(156.125,623.25)"><path id="SvgjsPath2492" d="M 0 4Q 0 0 4 0L 134.75 0Q 138.75 0 138.75 4L 138.75 65.5Q 138.75 69.5 134.75 69.5L 4 69.5Q 0 69.5 0 65.5Z" stroke="rgba(50,50,50,1)" stroke-width="2" fill-opacity="1" fill="#81c784"></path><g id="SvgjsG2493"><text id="SvgjsText2494" font-family="微软雅黑" text-anchor="middle" font-size="13px" width="119px" fill="#323232" font-weight="400" align="middle" lineHeight="125%" anchor="middle" family="微软雅黑" size="13px" weight="400" font-style="" opacity="1" y="9.125" transform="rotate(0)"><tspan id="SvgjsTspan2495" dy="16" x="69.5"><tspan id="SvgjsTspan2496" style="text-decoration:;">http_response()</tspan></tspan><tspan id="SvgjsTspan2497" dy="16" x="69.5"><tspan id="SvgjsTspan2498" style="text-decoration:;">or</tspan></tspan><tspan id="SvgjsTspan2499" dy="16" x="69.5"><tspan id="SvgjsTspan2500" style="text-decoration:;">http_write_chunk()</tspan></tspan></text></g></g><g id="SvgjsG2501" transform="translate(353.75,518.5)"><path id="SvgjsPath2502" d="M 0 35C 0 -11.666666666666666 70 -11.666666666666666 70 35C 70 81.66666666666667 0 81.66666666666667 0 35Z" stroke="rgba(50,50,50,1)" stroke-width="2" fill-opacity="1" fill="#81c784"></path><g id="SvgjsG2503"><text id="SvgjsText2504" font-family="微软雅黑" text-anchor="middle" font-size="13px" width="50px" fill="#323232" font-weight="400" align="middle" lineHeight="125%" anchor="middle" family="微软雅黑" size="13px" weight="400" font-style="" opacity="1" y="25.375" transform="rotate(0)"><tspan id="SvgjsTspan2505" dy="16" x="35"><tspan id="SvgjsTspan2506" style="text-decoration:;">Pending</tspan></tspan></text></g></g><g id="SvgjsG2507" transform="translate(323.25,919.75)"><path id="SvgjsPath2508" d="M 0 4Q 0 0 4 0L 127 0Q 131 0 131 4L 131 48.5Q 131 52.5 127 52.5L 4 52.5Q 0 52.5 0 48.5Z" stroke="rgba(50,50,50,1)" stroke-width="2" fill-opacity="1" fill="#e57373"></path><g id="SvgjsG2509"><text id="SvgjsText2510" font-family="微软雅黑" text-anchor="middle" font-size="13px" width="111px" fill="#323232" font-weight="400" align="middle" lineHeight="125%" anchor="middle" family="微软雅黑" size="13px" weight="400" font-style="" opacity="1" y="0.625" transform="rotate(0)"><tspan id="SvgjsTspan2511" dy="16" x="65.5"><tspan id="SvgjsTspan2512" style="text-decoration:;">Close connection </tspan></tspan><tspan id="SvgjsTspan2513" dy="16" x="65.5"><tspan id="SvgjsTspan2514" style="text-decoration:;">&amp;</tspan></tspan><tspan id="SvgjsTspan2515" dy="16" x="65.5"><tspan id="SvgjsTspan2516" style="text-decoration:;">free context</tspan></tspan></text></g></g><g id="SvgjsG2517" transform="translate(323.25,638.5)"><path id="SvgjsPath2518" d="M 0 4Q 0 0 4 0L 127 0Q 131 0 131 4L 131 35Q 131 39 127 39L 4 39Q 0 39 0 35Z" stroke="rgba(50,50,50,1)" stroke-width="2" fill-opacity="1" fill="#81c784"></path><g id="SvgjsG2519"><text id="SvgjsText2520" font-family="微软雅黑" text-anchor="middle" font-size="13px" width="111px" fill="#323232" font-weight="400" align="middle" lineHeight="125%" anchor="middle" family="微软雅黑" size="13px" weight="400" font-style="" opacity="1" y="9.875" transform="rotate(0)"><tspan id="SvgjsTspan2521" dy="16" x="65.5"><tspan id="SvgjsTspan2522" style="text-decoration:;">Response</tspan></tspan></text></g></g><g id="SvgjsG2523" transform="translate(212.75,982.5)"><path id="SvgjsPath2524" d="M 0 0L 281.5 0L 281.5 50L 0 50Z" stroke="none" fill="none"></path><g id="SvgjsG2525"><text id="SvgjsText2526" font-family="微软雅黑" text-anchor="middle" font-size="30px" width="282px" fill="#323232" font-weight="400" align="middle" lineHeight="125%" anchor="middle" family="微软雅黑" size="30px" weight="400" font-style="" opacity="1" y="0.75" transform="rotate(0)"><tspan id="SvgjsTspan2527" dy="37" x="141"><tspan id="SvgjsTspan2528" style="text-decoration:;">Fig. State Diagram</tspan></tspan></text></g></g><g id="SvgjsG2529" transform="translate(494.25,623)"><path id="SvgjsPath2530" d="M 0 35C 0 -11.666666666666666 70 -11.666666666666666 70 35C 70 81.66666666666667 0 81.66666666666667 0 35Z" stroke="rgba(50,50,50,1)" stroke-width="2" fill-opacity="1" fill="#fff176"></path><g id="SvgjsG2531"><text id="SvgjsText2532" font-family="微软雅黑" text-anchor="middle" font-size="13px" width="50px" fill="#323232" font-weight="400" align="middle" lineHeight="125%" anchor="middle" family="微软雅黑" size="13px" weight="400" font-style="" opacity="1" y="25.375" transform="rotate(0)"><tspan id="SvgjsTspan2533" dy="16" x="35"><tspan id="SvgjsTspan2534" style="text-decoration:;">Timeout</tspan></tspan></text></g></g><g id="SvgjsG2535"><path id="SvgjsPath2536" d="M494.25 658L474.25 658L474.25 658L454.25 658" stroke="#323232" stroke-width="2" fill="none" marker-end="url(#SvgjsMarker2537)"></path></g><g id="SvgjsG2539"><path id="SvgjsPath2540" d="M454.25 69L594.25 69L594.25 658L564.25 658" stroke-dasharray="3,3" stroke="#323232" stroke-width="2" fill="none" marker-end="url(#SvgjsMarker2541)"></path></g><g id="SvgjsG2543" transform="translate(328.75,755)"><path id="SvgjsPath2544" d="M 0 40L 60 0L 120 40L 60 80Z" stroke="rgba(50,50,50,1)" stroke-width="2" fill-opacity="1" fill="#81c784"></path><g id="SvgjsG2545"><text id="SvgjsText2546" font-family="微软雅黑" text-anchor="middle" font-size="13px" width="100px" fill="#323232" font-weight="400" align="middle" lineHeight="125%" anchor="middle" family="微软雅黑" size="13px" weight="400" font-style="" opacity="1" y="30.775" transform="rotate(0)"><tspan id="SvgjsTspan2547" dy="16" x="60"><tspan id="SvgjsTspan2548" style="text-decoration:;">Keep-alive?</tspan></tspan></text></g></g><g id="SvgjsG2549"><path id="SvgjsPath2550" d="M388.75 677.5L388.75 716.25L388.75 716.25L388.75 755" stroke="#323232" stroke-width="2" fill="none" marker-end="url(#SvgjsMarker2551)"></path></g><g id="SvgjsG2553" transform="translate(349.25,820.25)"><path id="SvgjsPath2554" d="M 0 0L 120 0L 120 40L 0 40Z" stroke="none" fill="none"></path><g id="SvgjsG2555"><text id="SvgjsText2556" font-family="微软雅黑" text-anchor="middle" font-size="13px" width="120px" fill="#323232" font-weight="400" align="middle" lineHeight="125%" anchor="middle" family="微软雅黑" size="13px" weight="400" font-style="" opacity="1" y="10.375" transform="rotate(0)"><tspan id="SvgjsTspan2557" dy="16" x="60"><tspan id="SvgjsTspan2558" style="text-decoration:;">No</tspan></tspan></text></g></g><g id="SvgjsG2559" transform="translate(409.5,760)"><path id="SvgjsPath2560" d="M 0 0L 120 0L 120 40L 0 40Z" stroke="none" fill="none"></path><g id="SvgjsG2561"><text id="SvgjsText2562" font-family="微软雅黑" text-anchor="middle" font-size="13px" width="120px" fill="#323232" font-weight="400" align="middle" lineHeight="125%" anchor="middle" family="微软雅黑" size="13px" weight="400" font-style="" opacity="1" y="10.375" transform="rotate(0)"><tspan id="SvgjsTspan2563" dy="16" x="60"><tspan id="SvgjsTspan2564" style="text-decoration:;">Yes</tspan></tspan></text></g></g><g id="SvgjsG2565" transform="translate(323.25,153)"><path id="SvgjsPath2566" d="M 0 4Q 0 0 4 0L 127 0Q 131 0 131 4L 131 35Q 131 39 127 39L 4 39Q 0 39 0 35Z" stroke="rgba(33,33,33,1)" stroke-width="2" fill-opacity="1" fill="#81c784"></path><g id="SvgjsG2567"><text id="SvgjsText2568" font-family="微软雅黑" text-anchor="middle" font-size="13px" width="111px" fill="#323232" font-weight="400" align="middle" lineHeight="125%" anchor="middle" family="微软雅黑" size="13px" weight="400" font-style="" opacity="1" y="9.875" transform="rotate(0)"><tspan id="SvgjsTspan2569" dy="16" x="65.5"><tspan id="SvgjsTspan2570" style="text-decoration:;">Wait request</tspan></tspan></text></g></g><g id="SvgjsG2571"><path id="SvgjsPath2572" d="M388.75 113L388.75 133L388.75 133L388.75 153" stroke="#323232" stroke-width="2" fill="none" marker-end="url(#SvgjsMarker2573)"></path></g><g id="SvgjsG2575"><path id="SvgjsPath2576" d="M448.75 795L622.25 795L622.25 172.5L454.25 172.5" stroke="#323232" stroke-width="2" fill="none" marker-end="url(#SvgjsMarker2577)"></path></g><g id="SvgjsG2579"><path id="SvgjsPath2580" d="M388.75 192L388.75 212L388.75 212L388.75 232" stroke="#323232" stroke-width="2" fill="none" marker-end="url(#SvgjsMarker2581)"></path></g><g id="SvgjsG2583"><path id="SvgjsPath2584" d="M388.75 271L388.75 291L388.75 291L388.75 311" stroke="#323232" stroke-width="2" fill="none" marker-end="url(#SvgjsMarker2585)"></path></g><g id="SvgjsG2587"><path id="SvgjsPath2588" d="M388.75 478.5L388.75 498.5L388.75 498.5L388.75 518.5" stroke="#323232" stroke-width="2" fill="none" marker-end="url(#SvgjsMarker2589)"></path></g><g id="SvgjsG2591"><path id="SvgjsPath2592" d="M294.875 658L309.0625 658L309.0625 658L323.25 658" stroke="#323232" stroke-width="2" fill="none" marker-end="url(#SvgjsMarker2593)"></path></g><g id="SvgjsG2595" transform="translate(55,414.75)"><path id="SvgjsPath2596" d="M 0 4Q 0 0 4 0L 127 0Q 131 0 131 4L 131 35Q 131 39 127 39L 4 39Q 0 39 0 35Z" stroke-dasharray="10,6" stroke="rgba(50,50,50,1)" stroke-width="2" fill-opacity="1" fill="#64b5f6"></path><g id="SvgjsG2597"><text id="SvgjsText2598" font-family="微软雅黑" text-anchor="middle" font-size="13px" width="111px" fill="#323232" font-weight="400" align="middle" lineHeight="125%" anchor="middle" family="微软雅黑" size="13px" weight="400" font-style="" opacity="1" y="9.875" transform="rotate(0)"><tspan id="SvgjsTspan2599" dy="16" x="65.5"><tspan id="SvgjsTspan2600" style="text-decoration:;">Async function</tspan></tspan></text></g></g><g id="SvgjsG2601"><path id="SvgjsPath2602" d="M344.5 434.25L265.25 434.25L265.25 434.25L186 434.25" stroke-dasharray="3,3" stroke="#323232" stroke-width="2" fill="none" marker-end="url(#SvgjsMarker2603)"></path></g><g id="SvgjsG2605"><path id="SvgjsPath2606" d="M120.5 453.75L120.5 658L156.125 658" stroke-dasharray="3,3" stroke="#323232" stroke-width="2" fill="none" marker-end="url(#SvgjsMarker2607)"></path></g><g id="SvgjsG2609" transform="translate(107.5,835)"><path id="SvgjsPath2610" d="M 0 4Q 0 0 4 0L 165.5 0Q 169.5 0 169.5 4L 169.5 31.5Q 169.5 35.5 165.5 35.5L 4 35.5Q 0 35.5 0 31.5Z" stroke="rgba(50,50,50,1)" stroke-width="2" fill-opacity="1" fill="#81c784"></path><g id="SvgjsG2611"><text id="SvgjsText2612" font-family="微软雅黑" text-anchor="middle" font-size="13px" width="150px" fill="#323232" font-weight="400" align="middle" lineHeight="125%" anchor="middle" family="微软雅黑" size="13px" weight="400" font-style="" opacity="1" y="8.125" transform="rotate(0)"><tspan id="SvgjsTspan2613" dy="16" x="85"><tspan id="SvgjsTspan2614" style="text-decoration:;">http_close_connection()</tspan></tspan></text></g></g><g id="SvgjsG2615"><path id="SvgjsPath2616" d="M55 434.25L25 434.25L25 852.75L107.5 852.75" stroke-dasharray="3,3" stroke="#323232" stroke-width="2" fill="none" marker-end="url(#SvgjsMarker2617)"></path></g><g id="SvgjsG2619"><path id="SvgjsPath2620" d="M55 286.5L25 286.5L25 852.75L107.5 852.75" stroke-dasharray="3,3" stroke="#323232" stroke-width="2" fill="none" marker-end="url(#SvgjsMarker2621)"></path></g><g id="SvgjsG2623"><path id="SvgjsPath2624" d="M55 207.5L25 207.5L25 852.75L107.5 852.75" stroke-dasharray="3,3" stroke="#323232" stroke-width="2" fill="none" marker-end="url(#SvgjsMarker2625)"></path></g><g id="SvgjsG2627"><path id="SvgjsPath2628" d="M120.5 306L120.5 355.625L225.5 355.625L225.5 623.25" stroke-dasharray="3,3" stroke="#323232" stroke-width="2" fill="none" marker-end="url(#SvgjsMarker2629)"></path></g><g id="SvgjsG2631"><path id="SvgjsPath2632" d="M120.5 227L120.5 248.125L225.5 248.125L225.5 623.25" stroke-dasharray="3,3" stroke="#323232" stroke-width="2" fill="none" marker-end="url(#SvgjsMarker2633)"></path></g><g id="SvgjsG2635" transform="translate(433.25,870.5)"><path id="SvgjsPath2636" d="M 0 4Q 0 0 4 0L 127 0Q 131 0 131 4L 131 35Q 131 39 127 39L 4 39Q 0 39 0 35Z" stroke-dasharray="10,6" stroke="rgba(50,50,50,1)" stroke-width="2" fill-opacity="1" fill="#64b5f6"></path><g id="SvgjsG2637"><text id="SvgjsText2638" font-family="微软雅黑" text-anchor="middle" font-size="13px" width="111px" fill="#323232" font-weight="400" align="middle" lineHeight="125%" anchor="middle" family="微软雅黑" size="13px" weight="400" font-style="" opacity="1" y="9.875" transform="rotate(0)"><tspan id="SvgjsTspan2639" dy="16" x="65.5"><tspan id="SvgjsTspan2640" style="text-decoration:;">before_close()</tspan></tspan></text></g></g><g id="SvgjsG2641" transform="translate(463.75,707)"><path id="SvgjsPath2642" d="M 0 4Q 0 0 4 0L 127 0Q 131 0 131 4L 131 35Q 131 39 127 39L 4 39Q 0 39 0 35Z" stroke-dasharray="10,6" stroke="rgba(50,50,50,1)" stroke-width="2" fill-opacity="1" fill="#64b5f6"></path><g id="SvgjsG2643"><text id="SvgjsText2644" font-family="微软雅黑" text-anchor="middle" font-size="13px" width="111px" fill="#323232" font-weight="400" align="middle" lineHeight="125%" anchor="middle" family="微软雅黑" size="13px" weight="400" font-style="" opacity="1" y="9.875" transform="rotate(0)"><tspan id="SvgjsTspan2645" dy="16" x="65.5"><tspan id="SvgjsTspan2646" style="text-decoration:;">post_response()</tspan></tspan></text></g></g><g id="SvgjsG2647"><path id="SvgjsPath2648" d="M388.75 192L388.75 207.5L186 207.5" stroke-dasharray="3,3" stroke="#323232" stroke-width="2" fill="none" marker-end="url(#SvgjsMarker2649)"></path></g><g id="SvgjsG2651"><path id="SvgjsPath2652" d="M388.75 271L388.75 286.5L186 286.5" stroke-dasharray="3,3" stroke="#323232" stroke-width="2" fill="none" marker-end="url(#SvgjsMarker2653)"></path></g><g id="SvgjsG2655"><path id="SvgjsPath2656" d="M388.75 677.5L388.75 726.5L463.75 726.5" stroke-dasharray="3,3" stroke="#323232" stroke-width="2" fill="none" marker-end="url(#SvgjsMarker2657)"></path></g><g id="SvgjsG2659"><path id="SvgjsPath2660" d="M277 852.75L388.75 852.75L388.75 919.75" stroke="#323232" stroke-width="2" fill="none" marker-end="url(#SvgjsMarker2661)"></path></g><g id="SvgjsG2663"><path id="SvgjsPath2664" d="M388.75 835L388.75 877.375L388.75 877.375L388.75 919.75" stroke="#323232" stroke-width="2" fill="none" marker-end="url(#SvgjsMarker2665)"></path></g><g id="SvgjsG2667"><path id="SvgjsPath2668" d="M388.75 919.75L388.75 890L433.25 890" stroke-dasharray="3,3" stroke="#323232" stroke-width="2" fill="none" marker-end="url(#SvgjsMarker2669)"></path></g></svg>