<?xml version="1.0" encoding="UTF-8" standalone="no"?>
<!DOCTYPE svg PUBLIC "-//W3C//DTD SVG 1.1//EN"
 "http://www.w3.org/Graphics/SVG/1.1/DTD/svg11.dtd">
<!-- Generated by graphviz version 2.49.1 (20210923.0004)
 -->
<!-- Pages: 1 -->
<svg width="523pt" height="711pt"
 viewBox="0.00 0.00 523.12 711.20" xmlns="http://www.w3.org/2000/svg" xmlns:xlink="http://www.w3.org/1999/xlink">
<g id="graph0" class="graph" transform="scale(1 1) rotate(0) translate(4 707.2)">
<polygon fill="white" stroke="transparent" points="-4,4 -4,-707.2 519.12,-707.2 519.12,4 -4,4"/>
<!-- closed -->
<g id="node1" class="node">
<title>closed</title>
<ellipse fill="none" stroke="black" cx="243.12" cy="-663.2" rx="36" ry="36"/>
<ellipse fill="none" stroke="black" cx="243.12" cy="-663.2" rx="40" ry="40"/>
<text text-anchor="middle" x="243.12" y="-659.5" font-family="Times,serif" font-size="14.00">closed</text>
</g>
<!-- waiting -->
<g id="node2" class="node">
<title>waiting</title>
<ellipse fill="none" stroke="black" cx="111.12" cy="-536.2" rx="36" ry="36"/>
<text text-anchor="middle" x="111.12" y="-532.5" font-family="Times,serif" font-size="14.00">waiting</text>
</g>
<!-- closed&#45;&gt;waiting -->
<g id="edge14" class="edge">
<title>closed&#45;&gt;waiting</title>
<path fill="none" stroke="black" d="M203.4,-656.57C172.8,-649.93 132.4,-635.65 112.12,-605.2 107.56,-598.36 105.41,-590.2 104.69,-581.95"/>
<polygon fill="black" stroke="black" points="108.19,-581.85 104.47,-571.93 101.19,-582.01 108.19,-581.85"/>
<text text-anchor="middle" x="156.62" y="-594" font-family="Times,serif" font-size="14.00">new connection</text>
</g>
<!-- parsing -->
<g id="node3" class="node">
<title>parsing</title>
<ellipse fill="none" stroke="black" cx="174.12" cy="-413.2" rx="36" ry="36"/>
<text text-anchor="middle" x="174.12" y="-409.5" font-family="Times,serif" font-size="14.00">parsing</text>
</g>
<!-- waiting&#45;&gt;parsing -->
<g id="edge1" class="edge">
<title>waiting&#45;&gt;parsing</title>
<path fill="none" stroke="black" d="M119.65,-501.06C123.08,-489.93 127.56,-477.74 133.12,-467.2 136.37,-461.05 140.34,-454.88 144.51,-449.04"/>
<polygon fill="black" stroke="black" points="147.52,-450.85 150.71,-440.75 141.92,-446.66 147.52,-450.85"/>
<text text-anchor="middle" x="167.12" y="-471" font-family="Times,serif" font-size="14.00">new request</text>
</g>
<!-- parsing&#45;&gt;closed -->
<g id="edge12" class="edge">
<title>parsing&#45;&gt;closed</title>
<path fill="none" stroke="black" d="M191.5,-444.99C195.05,-452.13 198.49,-459.81 201.12,-467.2 218.31,-515.53 229.67,-573.21 236.19,-613.24"/>
<polygon fill="black" stroke="black" points="232.76,-613.95 237.78,-623.27 239.67,-612.85 232.76,-613.95"/>
<text text-anchor="middle" x="242.12" y="-532.5" font-family="Times,serif" font-size="14.00">error</text>
</g>
<!-- handling -->
<g id="node4" class="node">
<title>handling</title>
<ellipse fill="none" stroke="black" cx="149.12" cy="-286.1" rx="36" ry="36"/>
<text text-anchor="middle" x="149.12" y="-282.4" font-family="Times,serif" font-size="14.00">handling</text>
</g>
<!-- parsing&#45;&gt;handling -->
<g id="edge2" class="edge">
<title>parsing&#45;&gt;handling</title>
<path fill="none" stroke="black" d="M166.9,-377.72C165.63,-371.56 164.33,-365.19 163.12,-359.2 161.34,-350.3 159.46,-340.77 157.68,-331.66"/>
<polygon fill="black" stroke="black" points="161.07,-330.74 155.73,-321.59 154.2,-332.08 161.07,-330.74"/>
</g>
<!-- response -->
<g id="node5" class="node">
<title>response</title>
<ellipse fill="none" stroke="black" cx="247.12" cy="-36" rx="36" ry="36"/>
<text text-anchor="middle" x="247.12" y="-32.3" font-family="Times,serif" font-size="14.00">response</text>
</g>
<!-- parsing&#45;&gt;response -->
<g id="edge3" class="edge">
<title>parsing&#45;&gt;response</title>
<path fill="none" stroke="black" d="M184.12,-378.3C199.24,-326.59 226.82,-230.29 233.12,-195 239.85,-157.37 243.39,-114.1 245.23,-82.36"/>
<polygon fill="black" stroke="black" points="248.75,-82.24 245.8,-72.07 241.76,-81.86 248.75,-82.24"/>
<text text-anchor="middle" x="256.62" y="-216.8" font-family="Times,serif" font-size="14.00">not found</text>
</g>
<!-- websocket -->
<g id="node6" class="node">
<title>websocket</title>
<ellipse fill="none" stroke="black" cx="281.12" cy="-286.1" rx="40.2" ry="40.2"/>
<text text-anchor="middle" x="281.12" y="-282.4" font-family="Times,serif" font-size="14.00">websocket</text>
</g>
<!-- parsing&#45;&gt;websocket -->
<g id="edge4" class="edge">
<title>parsing&#45;&gt;websocket</title>
<path fill="none" stroke="black" d="M186.98,-379.3C192.47,-367.54 199.6,-354.63 208.12,-344.2 213.49,-337.64 226.79,-326.81 240.6,-316.34"/>
<polygon fill="black" stroke="black" points="242.83,-319.05 248.73,-310.25 238.63,-313.44 242.83,-319.05"/>
<text text-anchor="middle" x="238.12" y="-348" font-family="Times,serif" font-size="14.00">websocket</text>
</g>
<!-- handling&#45;&gt;closed -->
<g id="edge8" class="edge">
<title>handling&#45;&gt;closed</title>
<path fill="none" stroke="black" d="M118.48,-305.3C69.33,-337.11 -19.38,-406.65 4.12,-482.2 24.8,-548.68 42.47,-567.7 101.12,-605.2 130.25,-623.83 166.47,-638.25 195.03,-647.92"/>
<polygon fill="black" stroke="black" points="194.2,-651.33 204.79,-651.15 196.4,-644.69 194.2,-651.33"/>
<text text-anchor="middle" x="37.62" y="-471" font-family="Times,serif" font-size="14.00">http_close()</text>
</g>
<!-- handling&#45;&gt;response -->
<g id="edge7" class="edge">
<title>handling&#45;&gt;response</title>
<path fill="none" stroke="black" d="M139.85,-251.04C132.45,-216.95 126.14,-163.84 145.12,-123 157.85,-95.62 184.06,-73.83 206.72,-59.03"/>
<polygon fill="black" stroke="black" points="208.6,-61.99 215.2,-53.7 204.87,-56.06 208.6,-61.99"/>
<text text-anchor="middle" x="189.12" y="-155.3" font-family="Times,serif" font-size="14.00">http_response()</text>
</g>
<!-- pending -->
<g id="node7" class="node">
<title>pending</title>
<ellipse fill="none" stroke="black" cx="311.12" cy="-159" rx="36" ry="36"/>
<text text-anchor="middle" x="311.12" y="-155.3" font-family="Times,serif" font-size="14.00">pending</text>
</g>
<!-- handling&#45;&gt;pending -->
<g id="edge6" class="edge">
<title>handling&#45;&gt;pending</title>
<path fill="none" stroke="black" d="M168.87,-255.65C179.36,-241.54 193.16,-225.1 208.12,-213 226.13,-198.44 248.78,-186.25 268.25,-177.25"/>
<polygon fill="black" stroke="black" points="269.83,-180.38 277.52,-173.09 266.96,-173.99 269.83,-180.38"/>
</g>
<!-- response&#45;&gt;closed -->
<g id="edge10" class="edge">
<title>response&#45;&gt;closed</title>
<path fill="none" stroke="black" d="M283.06,-42.03C340.87,-52.38 448.12,-81.83 448.12,-158 448.12,-537.2 448.12,-537.2 448.12,-537.2 448.12,-609.71 353.49,-641.39 292.81,-654.25"/>
<polygon fill="black" stroke="black" points="291.76,-650.9 282.65,-656.3 293.14,-657.76 291.76,-650.9"/>
<text text-anchor="middle" x="481.62" y="-348" font-family="Times,serif" font-size="14.00">http_close()</text>
</g>
<!-- response&#45;&gt;waiting -->
<g id="edge9" class="edge">
<title>response&#45;&gt;waiting</title>
<path fill="none" stroke="black" d="M212.37,-46.08C164.77,-60.85 85.12,-94.99 85.12,-158 85.12,-414.2 85.12,-414.2 85.12,-414.2 85.12,-440.41 91.02,-469.1 97.2,-491.97"/>
<polygon fill="black" stroke="black" points="93.87,-493.04 99.95,-501.71 100.6,-491.14 93.87,-493.04"/>
</g>
<!-- websocket&#45;&gt;closed -->
<g id="edge5" class="edge">
<title>websocket&#45;&gt;closed</title>
<path fill="none" stroke="black" d="M278.69,-326.39C275.09,-381.45 267.6,-484.66 257.12,-572.2 255.51,-585.71 253.39,-600.31 251.3,-613.74"/>
<polygon fill="black" stroke="black" points="247.83,-613.32 249.71,-623.74 254.74,-614.42 247.83,-613.32"/>
<text text-anchor="middle" x="300.62" y="-471" font-family="Times,serif" font-size="14.00">http_close()</text>
</g>
<!-- pending&#45;&gt;closed -->
<g id="edge13" class="edge">
<title>pending&#45;&gt;closed</title>
<path fill="none" stroke="black" d="M327.84,-191.17C339.56,-215.91 353.12,-251.77 353.12,-285.1 353.12,-537.2 353.12,-537.2 353.12,-537.2 353.12,-579.61 317,-614.47 286.15,-636.5"/>
<polygon fill="black" stroke="black" points="283.88,-633.81 277.63,-642.36 287.85,-639.58 283.88,-633.81"/>
<text text-anchor="middle" x="386.62" y="-409.5" font-family="Times,serif" font-size="14.00">http_close()</text>
</g>
<!-- pending&#45;&gt;response -->
<g id="edge11" class="edge">
<title>pending&#45;&gt;response</title>
<path fill="none" stroke="black" d="M294.64,-126.84C286.65,-111.74 276.96,-93.42 268.42,-77.27"/>
<polygon fill="black" stroke="black" points="271.32,-75.26 263.55,-68.05 265.13,-78.53 271.32,-75.26"/>
<text text-anchor="middle" x="326.12" y="-93.8" font-family="Times,serif" font-size="14.00">http_response()</text>
</g>
</g>
</svg>
